# xmcd
#
# Track frame offsets:
# 187
# 15147
# 28090
# 43050
# 59100
# 74947
# 91870
# 104745
# 120125
# 135455
#
# Disc length: 2025 seconds
#
#
# Revision: 4
# Processed by: cddbd v1.5.1PL0 Copyright (c) Steve Scherf et al.
# Submitted via: FreeRIP 2.92 
#
DISCID=8807e70a
DTITLE=Various Artist - Number One Hits Of The 80's
DYEAR=1900
DGENRE=Country
TTITLE0=Steve Wariner - Life's Highway
TTITLE1=George Strait - Nobody In His Right Mind Would've Left Her
TTITLE2=Lee Greenwood - Dixie Road
TTITLE3=Reba McEntire - Somebody Should Leave
TTITLE4=Oak Ridge Boys - Touch A Hand, Make A Friend
TTITLE5=Steve Wariner - Small Town Girl
TTITLE6=George Strait - It Ain't Cool To Be Crazy About You
TTITLE7=Lee Greenwood - I Don't Mind The Thorns (When You're The Rose)
TTITLE8=Reba McEntire - Whoever's In New England
TTITLE9=Don Williams - That's The Thing About Love
EXTD=
EXTT0=
EXTT1=
EXTT2=
EXTT3=
EXTT4=
EXTT5=
EXTT6=
EXTT7=
EXTT8=
EXTT9=
PLAYORDER=
